<svg width="674" height="148" viewBox="0 0 674 148" fill="none" xmlns="http://www.w3.org/2000/svg">
<path fill-rule="evenodd" clip-rule="evenodd" d="M147.841 144.579C139.314 144.579 130.788 144.579 122.262 144.579C122.262 109.211 122.262 73.8417 122.262 38.4736C130.788 38.4736 139.314 38.4736 147.841 38.4736C147.534 42.3152 147.849 46.1047 148.788 49.842C164.401 34.0295 182.085 31.3456 201.841 41.7894C206.086 44.929 209.875 48.5612 213.209 52.6841C228.754 36.4017 247.386 31.5076 269.104 37.9999C282.397 44.0432 290.45 54.306 293.262 68.7894C293.735 94.3665 293.894 119.945 293.735 145.526C284.894 145.526 276.051 145.526 267.209 145.526C267.647 121.793 267.173 98.1086 265.788 74.4736C260.826 62.281 251.826 57.7024 238.788 60.7368C230.355 63.8015 224.829 69.6439 222.209 78.2631C220.826 100.634 220.352 123.056 220.788 145.526C211.946 145.526 203.103 145.526 194.262 145.526C194.42 123.103 194.262 100.682 193.788 78.2631C190.816 64.0592 182.131 58.2177 167.735 60.7368C157.311 64.2146 150.837 71.3198 148.314 82.0526C147.841 102.892 147.682 123.734 147.841 144.579Z" fill="#5FD8C8"/>
<path fill-rule="evenodd" clip-rule="evenodd" d="M392.262 35.6315C405.673 34.0513 418.304 36.4197 430.156 42.7368C439.726 48.7668 444.778 57.4513 445.314 68.7894C436.764 69.1039 428.238 68.7875 419.735 67.842C418.279 63.0711 415.122 60.0708 410.262 58.842C404.248 56.9975 398.248 56.9975 392.262 58.842C385.441 62.2033 383.862 67.2566 387.525 73.9999C390.255 75.5233 393.097 76.7862 396.051 77.7894C409.671 79.3772 422.619 83.1667 434.893 89.1578C445.743 97.381 449.691 108.276 446.735 121.842C443.129 133.028 435.707 140.449 424.472 144.105C405.025 150.309 386.708 148.098 369.525 137.474C361.508 131.387 357.087 123.334 356.262 113.316C364.812 113.001 373.338 113.318 381.841 114.263C389.957 125.77 400.693 129.086 414.051 124.21C422.188 120.344 423.451 114.976 417.841 108.105C415.74 106.897 413.529 105.95 411.209 105.263C397.592 103.676 384.646 99.8868 372.367 93.8947C361.472 86.491 357.209 76.2282 359.577 63.1052C362.223 53.1929 368.066 45.7721 377.104 40.842C382.168 38.7863 387.221 37.0497 392.262 35.6315Z" fill="#5FD8C8"/>
<path fill-rule="evenodd" clip-rule="evenodd" d="M496.262 35.6315C509.673 34.0513 522.304 36.4197 534.156 42.7368C543.726 48.7668 548.778 57.4513 549.314 68.7894C540.764 69.1039 532.238 68.7875 523.735 67.842C522.279 63.0711 519.122 60.0708 514.262 58.842C508.248 56.9975 502.248 56.9975 496.262 58.842C489.441 62.2033 487.862 67.2566 491.525 73.9999C494.255 75.5233 497.097 76.7862 500.051 77.7894C513.671 79.3772 526.619 83.1667 538.893 89.1578C549.743 97.381 553.691 108.276 550.735 121.842C547.129 133.028 539.707 140.449 528.472 144.105C509.025 150.309 490.708 148.098 473.525 137.474C465.508 131.387 461.087 123.334 460.262 113.316C468.812 113.001 477.338 113.318 485.841 114.263C493.957 125.77 504.693 129.086 518.051 124.21C526.188 120.344 527.451 114.976 521.841 108.105C519.74 106.897 517.529 105.95 515.209 105.263C501.592 103.676 488.646 99.8868 476.367 93.8947C465.472 86.491 461.209 76.2282 463.577 63.1052C466.223 53.1929 472.066 45.7721 481.104 40.842C486.168 38.7863 491.221 37.0497 496.262 35.6315Z" fill="#5FD8C8"/>
<path fill-rule="evenodd" clip-rule="evenodd" d="M315.525 38.4736C324.367 38.4736 333.209 38.4736 342.051 38.4736C342.051 74.1582 342.051 109.842 342.051 145.526C333.209 145.526 324.367 145.526 315.525 145.526C315.525 109.842 315.525 74.1582 315.525 38.4736Z" fill="#5FD8C8"/>
<path d="M39.8394 37.0521C67.3378 31.4711 88.3381 40.4711 102.839 64.0521C107.601 75.2452 109.339 86.9292 108.05 99.1048C80.8856 98.7893 53.7273 99.1047 26.5767 100.052C26.6943 100.627 27.0097 100.942 27.524 100.999C29.181 113.555 36.1278 121.608 48.3658 125.158C57.0134 126.562 65.2245 125.298 72.9976 121.367C75.5612 119.121 77.7717 116.595 79.6295 113.788C88.4882 113 97.3303 113.158 106.156 114.262C100.509 129.857 89.7716 140.12 73.9449 145.052C53.9773 150.792 35.6618 147.635 18.9976 135.578C5.68056 123.435 -0.635431 108.277 0.0503803 90.1048C1.81248 63.7207 15.0755 46.0369 39.8394 37.0521ZM81.524 79.6839C77.0979 63.8884 66.6763 56.4672 50.2603 57.4202C38.5028 60.6518 31.2404 68.2312 28.4713 80.1575C46.1586 80.3157 63.8423 80.1576 81.524 79.6839Z" fill="#5FD8C8"/>
<path fill-rule="evenodd" clip-rule="evenodd" d="M108.051 99.1053C81.2093 99.7372 54.3666 100.368 27.5248 101C27.0103 100.943 26.6949 100.628 26.5774 100.053C53.728 99.1053 80.8862 98.7899 108.051 99.1053Z" fill="#5FD8C8"/>
<path fill-rule="evenodd" clip-rule="evenodd" d="M122.262 38.4736C122.262 73.8417 122.262 109.211 122.262 144.579C130.788 144.579 139.314 144.579 147.841 144.579C139.17 145.521 130.328 145.836 121.314 145.526C121 109.681 121.316 73.9962 122.262 38.4736Z" fill="#5FD8C8"/>
<rect x="315.525" width="30" height="30" fill="#5FD8C8"/>
<!-- O: Centered - capas centradas con halo -->
<rect x="564" y="40.5" width="108" height="108" rx="32" fill="#5FD8C8"/>
<rect x="580" y="56.5" width="76" height="76" rx="18" fill="#051F1C" opacity="0.35"/>
<rect x="588" y="64.5" width="60" height="60" rx="15" fill="#051F1C"/>
</svg>
