<svg width="393" height="257" viewBox="0 0 393 257" fill="none" xmlns="http://www.w3.org/2000/svg">
<g clip-path="url(#clip0_49_104)">
<path d="M302.851 100.966C291.961 90.3015 278.832 84.9619 263.497 84.9619C248.161 84.9619 235.062 90.3015 224.26 100.966C222.912 102.312 221.638 103.688 220.452 105.093C212.125 114.959 207.946 126.496 207.917 139.705V139.838C207.917 153.106 212.095 164.643 220.452 174.479C221.638 175.884 222.912 177.245 224.26 178.576C235.062 189.33 248.146 194.714 263.497 194.714C278.847 194.714 291.961 189.33 302.851 178.576C313.668 167.897 319.062 154.999 319.062 139.838C319.062 124.677 313.668 111.734 302.851 100.966ZM286.508 160.679C280.788 167.054 273.157 170.234 263.63 170.234C254.102 170.234 246.368 167.054 240.737 160.679C235.655 154.955 233.121 147.958 233.121 139.705C233.121 131.451 235.655 124.47 240.737 118.731C246.368 112.355 253.954 109.175 263.497 109.175C273.039 109.175 280.788 112.355 286.508 118.731C291.59 124.47 294.139 131.451 294.139 139.705C294.139 147.958 291.59 154.955 286.508 160.679Z" fill="#E16E09"/>
<path d="M133.608 178.562C132.274 177.26 131.015 175.914 129.859 174.538C121.443 164.687 117.25 153.135 117.25 139.823V139.69C117.279 126.452 121.472 114.885 129.859 105.004C131.015 103.614 132.274 102.268 133.608 100.951C144.41 90.2868 157.479 84.9471 172.829 84.9471C188.18 84.9471 201.293 90.2868 212.199 100.951C213.547 102.297 214.807 103.673 216.007 105.078C207.68 114.944 203.501 126.481 203.472 139.69C203.472 131.436 200.938 124.455 195.855 118.716C190.136 112.341 182.461 109.161 172.829 109.161C163.198 109.161 155.715 112.341 150.085 118.716C145.002 124.455 142.454 131.436 142.454 139.69V139.823C142.483 148.018 145.032 154.969 150.085 160.664C155.715 167.039 163.346 170.219 172.963 170.219C182.579 170.219 190.136 167.039 195.855 160.664C200.908 154.969 203.442 148.018 203.472 139.823C203.472 153.091 207.65 164.628 216.007 174.464C214.807 175.87 213.547 177.23 212.199 178.562C203.783 186.86 194.048 191.963 182.994 193.856C194.818 197.524 202.953 200.867 207.413 203.87C214.955 208.973 218.719 215.925 218.719 224.711C218.719 234.577 214.407 242.505 205.783 248.51C197.974 253.894 188.388 256.719 177.037 256.986C165.687 257.163 155.923 254.708 147.758 249.59C145.743 248.333 143.936 246.957 142.335 245.478C134.867 238.555 139.461 226.086 149.64 225.702L150.603 225.657C154.278 225.524 157.597 227.492 159.597 230.568C160.605 232.092 162.057 233.408 163.969 234.532C167.406 236.588 171.54 237.579 176.356 237.49C181.171 237.402 185.217 236.278 188.476 234.133C192.107 231.796 193.929 228.66 193.929 224.711C193.929 220.406 187.113 216.147 173.496 211.931C160.961 207.997 152.292 204.402 147.477 201.178C140.127 196.104 136.245 189.285 135.816 180.736" fill="#357A81"/>
<path d="M105.188 160.679C99.5577 167.054 91.9268 170.234 82.2955 170.234C72.6643 170.234 65.1371 167.054 59.4176 160.679C54.3352 154.955 51.7866 147.958 51.7866 139.705C51.7866 131.451 54.3352 124.47 59.4176 118.731C65.1371 112.355 72.8124 109.175 82.4289 109.175C92.0453 109.175 99.5577 112.355 105.188 118.731C110.271 124.47 112.804 131.451 112.804 139.705C112.834 126.466 117.027 114.9 125.414 105.019C124.243 103.629 122.999 102.283 121.665 100.966C110.863 90.3015 97.7796 84.9619 82.4289 84.9619C67.0781 84.9619 53.9648 90.3015 43.074 100.966C32.2574 111.734 26.8639 124.691 26.8639 139.838C26.8639 154.984 32.2574 167.897 43.074 178.576C53.9648 189.33 67.0929 194.714 82.4289 194.714C97.7648 194.714 110.863 189.33 121.665 178.576C122.999 177.275 124.243 175.929 125.414 174.553C116.998 164.702 112.804 153.15 112.804 139.838C112.775 148.032 110.241 154.984 105.188 160.679Z" fill="#357A81"/>
<path d="M381.694 142.027C377.145 138.98 368.803 135.578 356.623 131.806C349.363 129.469 344.325 127.59 341.51 126.156C336.976 123.641 334.694 120.683 334.694 117.281C334.694 113.42 336.205 110.284 339.198 107.859C341.925 105.714 345.318 104.59 349.407 104.501C353.408 104.324 356.905 105.181 359.898 107.06C361.484 108.036 362.758 109.205 363.706 110.565C366.003 113.849 369.944 115.565 373.93 115.225H374.034C383.976 114.337 388.051 102.075 380.657 95.3747C379.101 93.9548 377.353 92.6531 375.427 91.455C367.618 86.707 358.49 84.5475 348.044 85.006C337.598 85.4497 328.841 88.408 321.758 93.8808C317.106 97.4159 313.831 101.617 311.949 106.483C319.639 116.142 323.492 127.368 323.492 140.148V140.414C328.53 143.358 336.62 146.582 347.778 150.103C361.395 154.318 368.211 158.563 368.211 162.868C368.211 166.817 366.388 169.953 362.758 172.29C359.483 174.435 355.453 175.559 350.637 175.647C345.822 175.736 341.688 174.76 338.235 172.689C336.339 171.565 334.886 170.249 333.879 168.725C331.864 165.649 328.559 163.681 324.885 163.829L323.922 163.859C321.003 163.977 318.543 165.086 316.691 166.758C315.224 168.104 314.157 169.79 313.535 171.639C313.535 171.654 313.535 171.669 313.535 171.669C312.216 175.618 313.001 180.277 316.631 183.635C318.232 185.114 320.025 186.49 322.04 187.762C330.219 192.865 339.984 195.335 351.334 195.157C362.684 194.876 372.256 192.066 380.079 186.682C388.703 180.677 393.015 172.734 393.015 162.868C393.015 154.082 389.236 147.145 381.709 142.027H381.694Z" fill="#E16E09"/>
<path d="M24.656 7.83942C24.656 3.52035 21.1443 0 16.8177 0H7.85318C3.52652 0 0 3.52035 0 7.83942V187.185C0 191.519 3.52652 195.024 7.85318 195.024H16.8177C21.1443 195.024 24.656 191.519 24.656 187.185V156.197C23.1447 151.168 22.389 145.813 22.389 140.148C22.389 134.483 23.1447 129.129 24.656 124.07V7.83942Z" fill="#357A81"/>
</g>
<defs>
<clipPath id="clip0_49_104">
<rect width="393" height="257" fill="white"/>
</clipPath>
</defs>
</svg>
